<?xml version="1.0" encoding="UTF-8"?>
<!DOCTYPE svg PUBLIC "-//W3C//DTD SVG 1.1//EN" "http://www.w3.org/Graphics/SVG/1.1/DTD/svg11.dtd">
<svg xmlns="http://www.w3.org/2000/svg" version="1.1" width="500px" height="500px" style="shape-rendering:geometricPrecision; text-rendering:geometricPrecision; image-rendering:optimizeQuality; fill-rule:evenodd; clip-rule:evenodd" xmlns:xlink="http://www.w3.org/1999/xlink">
<g><path style="opacity:1" fill="#fefefe" d="M -0.5,-0.5 C 166.167,-0.5 332.833,-0.5 499.5,-0.5C 499.5,166.167 499.5,332.833 499.5,499.5C 332.833,499.5 166.167,499.5 -0.5,499.5C -0.5,332.833 -0.5,166.167 -0.5,-0.5 Z"/></g>
<g><path style="opacity:1" fill="#205168" d="M 48.5,165.5 C 48.5,165.167 48.5,164.833 48.5,164.5C 86.5015,164.333 124.501,164.5 162.5,165C 170.201,166.001 177.201,168.668 183.5,173C 180.469,175.508 177.469,178.008 174.5,180.5C 173.909,179.849 173.243,179.182 172.5,178.5C 174.833,177.167 177.167,175.833 179.5,174.5C 176.235,172.906 172.735,171.906 169,171.5C 166.663,172.808 164.163,173.808 161.5,174.5C 162.894,175.687 162.727,176.354 161,176.5C 159.681,175.681 158.515,174.681 157.5,173.5C 139.786,170.925 122.12,170.592 104.5,172.5C 98.455,171.617 92.455,171.283 86.5,171.5C 85.2011,172.09 84.3678,173.09 84,174.5C 80.996,171.911 77.496,171.078 73.5,172C 72.1667,172.667 72.1667,173.333 73.5,174C 71.1785,173.869 69.0118,173.035 67,171.5C 66.6666,173.047 67.1666,174.38 68.5,175.5C 67.3002,176.292 65.9669,176.292 64.5,175.5C 60.9219,173.925 57.5886,171.925 54.5,169.5C 52.7772,167.782 50.7772,166.449 48.5,165.5 Z"/></g>
<g><path style="opacity:1" fill="#1b495f" d="M 174.5,180.5 C 171.319,182.592 168.319,184.925 165.5,187.5C 165.389,186.883 165.056,186.383 164.5,186C 158.889,183.731 153.222,182.231 147.5,181.5C 122.003,180.668 96.3366,180.168 70.5,180C 68.2528,178.723 66.2528,177.223 64.5,175.5C 65.9669,176.292 67.3002,176.292 68.5,175.5C 67.1666,174.38 66.6666,173.047 67,171.5C 69.0118,173.035 71.1785,173.869 73.5,174C 72.1667,173.333 72.1667,172.667 73.5,172C 77.496,171.078 80.996,171.911 84,174.5C 84.3678,173.09 85.2011,172.09 86.5,171.5C 92.455,171.283 98.455,171.617 104.5,172.5C 122.12,170.592 139.786,170.925 157.5,173.5C 158.515,174.681 159.681,175.681 161,176.5C 162.727,176.354 162.894,175.687 161.5,174.5C 164.163,173.808 166.663,172.808 169,171.5C 172.735,171.906 176.235,172.906 179.5,174.5C 177.167,175.833 174.833,177.167 172.5,178.5C 173.243,179.182 173.909,179.849 174.5,180.5 Z"/></g>
<g><path style="opacity:1" fill="#909395" d="M 48.5,164.5 C 48.5,164.833 48.5,165.167 48.5,165.5C 48.169,190.339 48.5023,215.006 49.5,239.5C 49.44,240.043 49.1067,240.376 48.5,240.5C 47.171,215.003 47.171,189.67 48.5,164.5 Z"/></g>
<g><path style="opacity:1" fill="#0a1014" d="M 147.5,181.5 C 153.222,182.231 158.889,183.731 164.5,186C 165.056,186.383 165.389,186.883 165.5,187.5C 162.095,190.238 158.428,192.571 154.5,194.5C 142.396,191.027 130.063,188.361 117.5,186.5C 111.256,187.061 105.256,188.561 99.5,191C 91.5069,191.5 83.5069,191.666 75.5,191.5C 75.6662,197.842 75.4995,204.175 75,210.5C 74.6174,211.056 74.1174,211.389 73.5,211.5C 72.506,201.681 72.1726,191.681 72.5,181.5C 97.5,181.5 122.5,181.5 147.5,181.5 Z"/></g>
<g><path style="opacity:1" fill="#060606" d="M 228.5,189.5 C 238.172,189.334 247.839,189.5 257.5,190C 271.025,193.423 273.025,200.089 263.5,210C 261,210.885 258.667,212.052 256.5,213.5C 260.125,215.221 263.792,217.055 267.5,219C 273.715,224.708 274.048,230.708 268.5,237C 265.382,238.893 262.049,240.226 258.5,241C 247.923,241.819 237.423,241.652 227,240.5C 226.019,223.394 226.519,206.394 228.5,189.5 Z"/></g>
<g><path style="opacity:1" fill="#0c2431" d="M 54.5,169.5 C 57.5886,171.925 60.9219,173.925 64.5,175.5C 66.2528,177.223 68.2528,178.723 70.5,180C 96.3366,180.168 122.003,180.668 147.5,181.5C 122.5,181.5 97.5,181.5 72.5,181.5C 72.1726,191.681 72.506,201.681 73.5,211.5C 70.0014,216.491 67.0014,221.825 64.5,227.5C 61.6508,230.084 58.6508,232.417 55.5,234.5C 54.5116,212.909 54.1783,191.242 54.5,169.5 Z"/></g>
<g><path style="opacity:1" fill="#030c13" d="M 48.5,165.5 C 50.7772,166.449 52.7772,167.782 54.5,169.5C 54.1783,191.242 54.5116,212.909 55.5,234.5C 53.4752,236.196 51.4752,237.863 49.5,239.5C 48.5023,215.006 48.169,190.339 48.5,165.5 Z"/></g>
<g><path style="opacity:1" fill="#040404" d="M 321.5,192.5 C 324.833,192.5 328.167,192.5 331.5,192.5C 331.5,195.5 331.5,198.5 331.5,201.5C 335.846,201.334 340.179,201.501 344.5,202C 345.423,204.041 345.756,206.208 345.5,208.5C 341.154,208.334 336.821,208.501 332.5,209C 332,209.5 331.5,210 331,210.5C 330.333,216.833 330.333,223.167 331,229.5C 332.296,231.815 334.296,232.815 337,232.5C 340.141,231.678 343.307,231.011 346.5,230.5C 346.784,233.777 346.451,236.943 345.5,240C 338.793,241.91 332.127,241.91 325.5,240C 323.622,238.457 322.122,236.624 321,234.5C 320.5,225.84 320.334,217.173 320.5,208.5C 317.813,208.664 315.146,208.497 312.5,208C 311.167,206 311.167,204 312.5,202C 315.146,201.503 317.813,201.336 320.5,201.5C 320.264,198.391 320.597,195.391 321.5,192.5 Z"/></g>
<g><path style="opacity:1" fill="#0c1b25" d="M 173.5,193.5 C 175.88,195.237 177.547,197.57 178.5,200.5C 176.116,202.722 173.449,203.056 170.5,201.5C 169.188,200.855 168.188,199.855 167.5,198.5C 168.911,196.086 170.911,194.419 173.5,193.5 Z"/></g>
<g><path style="opacity:1" fill="#38a8ca" d="M 142.5,201.5 C 145.45,203.115 148.116,205.115 150.5,207.5C 146.402,206.898 142.402,206.898 138.5,207.5C 123.265,201.368 108.598,202.368 94.5,210.5C 93.0695,210.579 91.7362,210.246 90.5,209.5C 89.1667,210.5 87.8333,211.5 86.5,212.5C 85.2736,211.637 83.9403,211.637 82.5,212.5C 89.6763,204.243 98.6763,199.076 109.5,197C 121.011,195.345 132.011,196.845 142.5,201.5 Z"/></g>
<g><path style="opacity:1" fill="#f5f5f5" d="M 239.5,197.5 C 244.511,197.334 249.511,197.501 254.5,198C 257.875,199.029 259.042,201.196 258,204.5C 252.138,208.59 245.638,210.09 238.5,209C 236.97,204.948 237.303,201.115 239.5,197.5 Z"/></g>
<g><path style="opacity:1" fill="#0a0a0a" d="M 285.5,201.5 C 291.593,201.139 297.593,201.639 303.5,203C 310.343,207.2 312.176,213.033 309,220.5C 305.209,224.932 300.376,226.932 294.5,226.5C 291.294,226.653 288.294,225.986 285.5,224.5C 284.417,225.365 284.251,226.365 285,227.5C 287.817,231.075 291.484,233.075 296,233.5C 301.13,232.509 305.964,230.843 310.5,228.5C 310.665,231.85 310.498,235.183 310,238.5C 309.25,239.126 308.416,239.626 307.5,240C 300.567,241.506 293.567,241.839 286.5,241C 276.253,235.639 272.086,227.139 274,215.5C 275.873,209.136 279.706,204.469 285.5,201.5 Z"/></g>
<g><path style="opacity:1" fill="#080808" d="M 356.5,201.5 C 362.176,201.334 367.843,201.501 373.5,202C 379,203.5 382.5,207 384,212.5C 385.487,222.046 385.653,231.546 384.5,241C 381.167,241.667 377.833,241.667 374.5,241C 373.726,238.595 373.226,236.095 373,233.5C 368.464,240.844 361.964,243.344 353.5,241C 349.047,238.929 347.047,235.429 347.5,230.5C 347.56,224.889 350.226,221.055 355.5,219C 361.184,217.774 366.851,216.441 372.5,215C 373.833,213.667 373.833,212.333 372.5,211C 364.861,208.349 357.861,209.515 351.5,214.5C 350.343,211.216 350.176,207.882 351,204.5C 352.719,203.131 354.552,202.131 356.5,201.5 Z"/></g>
<g><path style="opacity:1" fill="#16384a" d="M 202.5,219.5 C 201.069,216.48 201.403,213.647 203.5,211C 203.138,209.775 202.638,208.609 202,207.5C 198.286,208.179 194.619,209.179 191,210.5C 189.289,210.561 187.956,209.894 187,208.5C 186.289,210.367 186.789,211.867 188.5,213C 185.819,215.103 183.319,214.936 181,212.5C 177.644,217.345 174.144,222.012 170.5,226.5C 169.264,224.351 168.264,222.018 167.5,219.5C 172.777,214.229 173.777,208.229 170.5,201.5C 173.449,203.056 176.116,202.722 178.5,200.5C 177.547,197.57 175.88,195.237 173.5,193.5C 178.647,189.197 183.98,185.03 189.5,181C 192.642,181.088 195.142,182.588 197,185.5C 204.623,196.009 206.456,207.343 202.5,219.5 Z"/></g>
<g><path style="opacity:1" fill="#bdc9cd" d="M 142.5,201.5 C 145.425,201.46 148.091,202.293 150.5,204C 153.787,205.467 156.454,207.634 158.5,210.5C 157.167,210.5 155.833,210.5 154.5,210.5C 153.167,209.5 151.833,208.5 150.5,207.5C 148.116,205.115 145.45,203.115 142.5,201.5 Z"/></g>
<g><path style="opacity:1" fill="#f7f7f7" d="M 288.5,209.5 C 291.909,209.249 295.242,209.583 298.5,210.5C 301.356,214.04 301.023,217.206 297.5,220C 293.833,220.667 290.167,220.667 286.5,220C 285.106,219.044 284.439,217.711 284.5,216C 284.845,213.169 286.178,211.003 288.5,209.5 Z"/></g>
<g><path style="opacity:1" fill="#28728d" d="M 150.5,207.5 C 151.833,208.5 153.167,209.5 154.5,210.5C 156.58,212.573 158.246,214.907 159.5,217.5C 158.503,217.47 157.836,217.97 157.5,219C 159.129,221.615 158.796,223.782 156.5,225.5C 152.139,217.806 146.139,211.806 138.5,207.5C 142.402,206.898 146.402,206.898 150.5,207.5 Z"/></g>
<g><path style="opacity:1" fill="#2c83a0" d="M 94.5,210.5 C 90.1667,214.167 86.1667,218.167 82.5,222.5C 80.0122,222.317 78.0122,221.317 76.5,219.5C 78.2733,216.94 80.2733,214.607 82.5,212.5C 83.9403,211.637 85.2736,211.637 86.5,212.5C 87.8333,211.5 89.1667,210.5 90.5,209.5C 91.7362,210.246 93.0695,210.579 94.5,210.5 Z"/></g>
<g><path style="opacity:1" fill="#0d2734" d="M 202.5,219.5 C 202.204,221.403 201.537,223.07 200.5,224.5C 200.631,223.761 200.464,223.094 200,222.5C 194.755,231.744 187.088,238.077 177,241.5C 176.055,241.095 175.388,240.428 175,239.5C 174.821,243.025 174.321,246.359 173.5,249.5C 174.13,241.579 173.13,233.913 170.5,226.5C 174.144,222.012 177.644,217.345 181,212.5C 183.319,214.936 185.819,215.103 188.5,213C 186.789,211.867 186.289,210.367 187,208.5C 187.956,209.894 189.289,210.561 191,210.5C 194.619,209.179 198.286,208.179 202,207.5C 202.638,208.609 203.138,209.775 203.5,211C 201.403,213.647 201.069,216.48 202.5,219.5 Z"/></g>
<g><path style="opacity:1" fill="#f3f3f3" d="M 239.5,217.5 C 246.984,217.449 253.817,219.449 260,223.5C 261.324,229.523 258.824,232.689 252.5,233C 238.439,235.78 234.105,230.613 239.5,217.5 Z"/></g>
<g><path style="opacity:1" fill="#f1f1f1" d="M 365.5,220.5 C 371.352,219.63 373.852,221.963 373,227.5C 369.707,232.386 365.207,233.72 359.5,231.5C 358.48,229.568 358.313,227.568 359,225.5C 360.965,223.45 363.132,221.783 365.5,220.5 Z"/></g>
<g><path style="opacity:1" fill="#26637b" d="M 76.5,219.5 C 78.0122,221.317 80.0122,222.317 82.5,222.5C 79.6698,227.837 77.6698,233.503 76.5,239.5C 74.2436,238.562 71.9103,238.562 69.5,239.5C 69.5,243.833 69.5,248.167 69.5,252.5C 67.2095,240.645 69.5428,229.645 76.5,219.5 Z"/></g>
<g><path style="opacity:1" fill="#102a39" d="M 159.5,217.5 C 167.055,226.974 170.055,237.641 168.5,249.5C 168.649,248.448 168.483,247.448 168,246.5C 166.301,247.406 164.467,247.739 162.5,247.5C 162.606,239.507 160.606,232.173 156.5,225.5C 158.796,223.782 159.129,221.615 157.5,219C 157.836,217.97 158.503,217.47 159.5,217.5 Z"/></g>
<g><path style="opacity:1" fill="#133d51" d="M 76.5,239.5 C 76.666,244.844 76.4994,250.177 76,255.5C 72.9423,254.034 71.109,255.034 70.5,258.5C 70.1667,258.5 69.8333,258.5 69.5,258.5C 69.5,256.5 69.5,254.5 69.5,252.5C 69.5,248.167 69.5,243.833 69.5,239.5C 71.9103,238.562 74.2436,238.562 76.5,239.5 Z"/></g>
<g><path style="opacity:1" fill="#05131a" d="M 200.5,224.5 C 196.717,232.784 190.717,238.95 182.5,243C 200.939,252.378 208.272,267.211 204.5,287.5C 204.047,286.542 203.381,285.708 202.5,285C 203.833,283.667 203.833,282.333 202.5,281C 197.212,281.078 192.045,281.244 187,281.5C 185.333,280.833 183.667,280.167 182,279.5C 181.722,280.416 181.222,281.082 180.5,281.5C 180.726,278.751 180.393,276.084 179.5,273.5C 177.291,272.937 175.791,271.604 175,269.5C 173.586,270.413 172.086,270.413 170.5,269.5C 170.167,269.5 169.833,269.5 169.5,269.5C 171.692,263.018 173.025,256.352 173.5,249.5C 174.321,246.359 174.821,243.025 175,239.5C 175.388,240.428 176.055,241.095 177,241.5C 187.088,238.077 194.755,231.744 200,222.5C 200.464,223.094 200.631,223.761 200.5,224.5 Z"/></g>
<g><path style="opacity:1" fill="#090909" d="M 278.5,254.5 C 281.602,254.154 284.435,254.821 287,256.5C 287.668,262.829 284.834,265.329 278.5,264C 274.511,260.658 274.511,257.491 278.5,254.5 Z"/></g>
<g><path style="opacity:1" fill="#090909" d="M 330.5,254.5 C 333.602,254.154 336.435,254.821 339,256.5C 339.668,262.829 336.834,265.329 330.5,264C 326.511,260.658 326.511,257.491 330.5,254.5 Z"/></g>
<g><path style="opacity:1" fill="#050e15" d="M 138.5,207.5 C 146.139,211.806 152.139,217.806 156.5,225.5C 160.606,232.173 162.606,239.507 162.5,247.5C 164.467,247.739 166.301,247.406 168,246.5C 168.483,247.448 168.649,248.448 168.5,249.5C 166.115,274.387 152.781,289.887 128.5,296C 104.645,299.57 86.6449,291.07 74.5,270.5C 72.6035,266.703 71.2702,262.703 70.5,258.5C 71.109,255.034 72.9423,254.034 76,255.5C 76.4994,250.177 76.666,244.844 76.5,239.5C 77.6698,233.503 79.6698,227.837 82.5,222.5C 86.1667,218.167 90.1667,214.167 94.5,210.5C 108.598,202.368 123.265,201.368 138.5,207.5 Z"/></g>
<g><path style="opacity:1" fill="#1e4e64" d="M 86.5,240.5 C 86.347,246.869 86.6803,253.203 87.5,259.5C 86.8333,260.5 86.1667,261.5 85.5,262.5C 83.4163,259.947 82.083,256.947 81.5,253.5C 82.4767,250.713 82.81,247.713 82.5,244.5C 84.3839,243.661 85.7172,242.328 86.5,240.5 Z"/></g>
<g><path style="opacity:1" fill="#3a8ba2" d="M 96.5,219.5 C 97.5,219.5 98.5,219.5 99.5,219.5C 96.1691,223 93.0024,226.666 90,230.5C 87.9653,233.561 86.7986,236.895 86.5,240.5C 85.7172,242.328 84.3839,243.661 82.5,244.5C 83.848,234.121 88.5147,225.788 96.5,219.5 Z"/></g>
<g><path style="opacity:1" fill="#050f16" d="M 112.5,214.5 C 125.581,212.507 136.581,216.174 145.5,225.5C 150.671,231.514 153.337,238.514 153.5,246.5C 151.825,267.508 140.492,278.842 119.5,280.5C 104.509,280.009 93.8422,273.009 87.5,259.5C 86.6803,253.203 86.347,246.869 86.5,240.5C 86.7986,236.895 87.9653,233.561 90,230.5C 93.0024,226.666 96.1691,223 99.5,219.5C 103.481,217.013 107.815,215.346 112.5,214.5 Z"/></g>
<g><path style="opacity:1" fill="#061c27" d="M 134.5,232.5 C 137.949,234.617 140.282,237.617 141.5,241.5C 140.25,241.577 139.417,242.244 139,243.5C 138.667,242.833 138.333,242.167 138,241.5C 133.264,247.535 127.097,251.369 119.5,253C 118.5,254 117.5,255 116.5,256C 111.5,256.333 106.5,256.667 101.5,257C 100.944,257.383 100.611,257.883 100.5,258.5C 98.7977,255.848 98.4644,253.015 99.5,250C 105.539,249.663 111.539,248.997 117.5,248C 119.026,246.113 121.026,245.113 123.5,245C 127.689,241.252 131.356,237.085 134.5,232.5 Z"/></g>
<g><path style="opacity:1" fill="#1c6e8a" d="M 95.5,233.5 C 95.5548,236.614 96.8881,238.948 99.5,240.5C 98.5707,244.127 97.7373,247.793 97,251.5C 96.3333,250.167 95.6667,250.167 95,251.5C 93.097,248.829 92.2637,245.829 92.5,242.5C 92.1324,238.956 93.1324,235.956 95.5,233.5 Z"/></g>
<g><path style="opacity:1" fill="#0f3b4c" d="M 121.5,227.5 C 126.095,228.032 130.429,229.365 134.5,231.5C 134.5,231.833 134.5,232.167 134.5,232.5C 131.356,237.085 127.689,241.252 123.5,245C 121.026,245.113 119.026,246.113 117.5,248C 111.539,248.997 105.539,249.663 99.5,250C 98.4644,253.015 98.7977,255.848 100.5,258.5C 102.426,263.088 105.426,266.755 109.5,269.5C 109.5,269.833 109.5,270.167 109.5,270.5C 106.763,270.599 104.096,270.265 101.5,269.5C 93.4704,262.078 90.4704,253.078 92.5,242.5C 92.2637,245.829 93.097,248.829 95,251.5C 95.6667,250.167 96.3333,250.167 97,251.5C 97.7373,247.793 98.5707,244.127 99.5,240.5C 101.58,237.358 103.914,234.358 106.5,231.5C 107.167,231.5 107.833,231.5 108.5,231.5C 106.822,234.552 106.155,237.885 106.5,241.5C 108.902,245.078 112.235,246.245 116.5,245C 122.694,243.066 125.027,239.233 123.5,233.5C 121.824,231.166 119.491,230.166 116.5,230.5C 116.5,230.167 116.5,229.833 116.5,229.5C 118.514,229.608 120.18,228.942 121.5,227.5 Z"/></g>
<g><path style="opacity:1" fill="#3599b5" d="M 123.5,233.5 C 125.027,239.233 122.694,243.066 116.5,245C 112.235,246.245 108.902,245.078 106.5,241.5C 107.492,241.672 108.158,241.338 108.5,240.5C 110.156,239.854 111.823,239.187 113.5,238.5C 118.833,240.501 122.166,238.834 123.5,233.5 Z"/></g>
<g><path style="opacity:1" fill="#24647c" d="M 139.5,227.5 C 144.36,231.705 147.026,237.038 147.5,243.5C 147.25,244.922 146.417,245.922 145,246.5C 144.814,249.036 144.314,251.369 143.5,253.5C 143.768,251.901 143.434,250.568 142.5,249.5C 142.721,246.721 142.388,244.054 141.5,241.5C 140.282,237.617 137.949,234.617 134.5,232.5C 134.5,232.167 134.5,231.833 134.5,231.5C 135.542,230.209 136.708,230.209 138,231.5C 138.41,230.099 138.91,228.766 139.5,227.5 Z"/></g>
<g><path style="opacity:1" fill="#6dd7e9" d="M 116.5,229.5 C 116.5,229.833 116.5,230.167 116.5,230.5C 114.621,231.341 112.621,231.675 110.5,231.5C 110.421,232.93 110.754,234.264 111.5,235.5C 110.352,237.149 109.019,238.649 107.5,240C 107.728,240.399 108.062,240.565 108.5,240.5C 108.158,241.338 107.492,241.672 106.5,241.5C 106.155,237.885 106.822,234.552 108.5,231.5C 110.905,230.232 113.572,229.565 116.5,229.5 Z"/></g>
<g><path style="opacity:1" fill="#268eac" d="M 101.5,226.5 C 101.537,229.702 103.203,231.368 106.5,231.5C 103.914,234.358 101.58,237.358 99.5,240.5C 96.8881,238.948 95.5548,236.614 95.5,233.5C 96.7805,230.553 98.7805,228.219 101.5,226.5 Z"/></g>
<g><path style="opacity:1" fill="#164358" d="M 148.5,222.5 C 157.756,233.725 159.756,246.225 154.5,260C 154.164,261.03 153.497,261.53 152.5,261.5C 154.401,256.45 154.735,251.45 153.5,246.5C 153.337,238.514 150.671,231.514 145.5,225.5C 147.19,225.144 148.19,224.144 148.5,222.5 Z"/></g>
<g><path style="opacity:1" fill="#f0f7f8" d="M 116.5,230.5 C 119.491,230.166 121.824,231.166 123.5,233.5C 122.166,238.834 118.833,240.501 113.5,238.5C 111.823,239.187 110.156,239.854 108.5,240.5C 108.062,240.565 107.728,240.399 107.5,240C 109.019,238.649 110.352,237.149 111.5,235.5C 110.754,234.264 110.421,232.93 110.5,231.5C 112.621,231.675 114.621,231.341 116.5,230.5 Z"/></g>
<g><path style="opacity:1" fill="#2ea2c3" d="M 119.5,219.5 C 127.341,219.427 134.008,222.094 139.5,227.5C 138.91,228.766 138.41,230.099 138,231.5C 136.708,230.209 135.542,230.209 134.5,231.5C 130.429,229.365 126.095,228.032 121.5,227.5C 123.228,224.117 122.561,221.45 119.5,219.5 Z"/></g>
<g><path style="opacity:1" fill="#f6f9f9" d="M 119.5,219.5 C 122.561,221.45 123.228,224.117 121.5,227.5C 120.18,228.942 118.514,229.608 116.5,229.5C 113.572,229.565 110.905,230.232 108.5,231.5C 107.833,231.5 107.167,231.5 106.5,231.5C 103.203,231.368 101.537,229.702 101.5,226.5C 106.001,220.66 112.001,218.327 119.5,219.5 Z"/></g>
<g><path style="opacity:1" fill="#288baa" d="M 133.5,211.5 C 139.348,214.015 144.348,217.682 148.5,222.5C 148.19,224.144 147.19,225.144 145.5,225.5C 136.581,216.174 125.581,212.507 112.5,214.5C 119.562,213.954 126.562,212.954 133.5,211.5 Z"/></g>
<g><path style="opacity:1" fill="#d0dddf" d="M 131.5,211.5 C 120.231,209.051 109.564,210.551 99.5,216C 98.2899,217.039 97.2899,218.206 96.5,219.5C 88.5147,225.788 83.848,234.121 82.5,244.5C 82.81,247.713 82.4767,250.713 81.5,253.5C 79.2599,231.496 88.5932,216.663 109.5,209C 114.5,208.333 119.5,208.333 124.5,209C 127.191,209.156 129.524,209.989 131.5,211.5 Z"/></g>
<g><path style="opacity:1" fill="#36bbd9" d="M 131.5,211.5 C 132.167,211.5 132.833,211.5 133.5,211.5C 126.562,212.954 119.562,213.954 112.5,214.5C 107.815,215.346 103.481,217.013 99.5,219.5C 98.5,219.5 97.5,219.5 96.5,219.5C 97.2899,218.206 98.2899,217.039 99.5,216C 109.564,210.551 120.231,209.051 131.5,211.5 Z"/></g>
<g><path style="opacity:1" fill="#071016" d="M 141.5,241.5 C 142.388,244.054 142.721,246.721 142.5,249.5C 138.001,266.593 127.001,273.259 109.5,269.5C 105.426,266.755 102.426,263.088 100.5,258.5C 100.611,257.883 100.944,257.383 101.5,257C 106.5,256.667 111.5,256.333 116.5,256C 117.5,255 118.5,254 119.5,253C 127.097,251.369 133.264,247.535 138,241.5C 138.333,242.167 138.667,242.833 139,243.5C 139.417,242.244 140.25,241.577 141.5,241.5 Z"/></g>
<g><path style="opacity:1" fill="#080808" d="M 226.5,256.5 C 230.437,256.207 234.27,256.54 238,257.5C 239.466,270.031 242.799,282.031 248,293.5C 250.709,294.706 252.375,293.706 253,290.5C 257.231,279.811 260.231,268.811 262,257.5C 265.73,256.54 269.563,256.207 273.5,256.5C 270.563,274.478 264.729,291.478 256,307.5C 252.256,308.626 248.423,308.793 244.5,308C 241.286,303.074 238.452,297.907 236,292.5C 231.985,281.29 228.485,269.957 225.5,258.5C 225.863,257.817 226.196,257.15 226.5,256.5 Z"/></g>
<g><path style="opacity:1" fill="#ccd1d5" d="M 69.5,258.5 C 69.8333,258.5 70.1667,258.5 70.5,258.5C 71.2702,262.703 72.6035,266.703 74.5,270.5C 73.242,272.687 72.242,275.02 71.5,277.5C 71.1667,277.5 70.8333,277.5 70.5,277.5C 68.5558,273.277 66.8892,268.944 65.5,264.5C 67.3264,262.853 68.6597,260.853 69.5,258.5 Z"/></g>
<g><path style="opacity:1" fill="#8c8e91" d="M 134.5,257.5 C 135.803,259.757 135.136,261.59 132.5,263C 129.562,265.425 126.228,266.425 122.5,266C 127.821,264.82 131.821,261.986 134.5,257.5 Z"/></g>
<g><path style="opacity:1" fill="#dadcdd" d="M 142.5,249.5 C 143.434,250.568 143.768,251.901 143.5,253.5C 137.988,270.658 126.655,276.325 109.5,270.5C 109.5,270.167 109.5,269.833 109.5,269.5C 127.001,273.259 138.001,266.593 142.5,249.5 Z"/></g>
<g><path style="opacity:1" fill="#060e14" d="M 65.5,264.5 C 66.8892,268.944 68.5558,273.277 70.5,277.5C 63.5,282.833 56.5,288.167 49.5,293.5C 48.5042,279.677 48.1709,265.677 48.5,251.5C 53.0595,248.298 57.5595,244.964 62,241.5C 61.9415,249.409 63.1082,257.076 65.5,264.5 Z"/></g>
<g><path style="opacity:1" fill="#8f9294" d="M 48.5,251.5 C 48.1709,265.677 48.5042,279.677 49.5,293.5C 49.44,294.043 49.1067,294.376 48.5,294.5C 47.1741,280.006 47.1741,265.672 48.5,251.5 Z"/></g>
<g><path style="opacity:1" fill="#121212" d="M 277.5,268.5 C 280.187,268.336 282.854,268.503 285.5,269C 286.227,270.399 286.727,271.899 287,273.5C 287.82,285.076 287.654,296.576 286.5,308C 282.909,308.789 279.409,308.622 276,307.5C 275.333,296.167 275.333,284.833 276,273.5C 276.352,271.753 276.852,270.086 277.5,268.5 Z"/></g>
<g><path style="opacity:1" fill="#070707" d="M 299.5,268.5 C 306.921,268.109 314.254,268.609 321.5,270C 322.451,273.057 322.784,276.223 322.5,279.5C 316.411,276.957 310.077,276.124 303.5,277C 300.674,279.522 301.007,281.522 304.5,283C 311.004,284.722 317.171,287.222 323,290.5C 327.529,299.28 325.029,305.113 315.5,308C 307.768,308.856 300.102,308.523 292.5,307C 291.584,306.626 290.75,306.126 290,305.5C 289.333,302.167 289.333,298.833 290,295.5C 290.414,295.043 290.914,294.709 291.5,294.5C 298.009,300.128 305.342,301.628 313.5,299C 314.833,297.333 314.833,295.667 313.5,294C 306.256,292.141 299.423,289.308 293,285.5C 288.463,277.244 290.63,271.577 299.5,268.5 Z"/></g>
<g><path style="opacity:1" fill="#121212" d="M 329.5,268.5 C 332.187,268.336 334.854,268.503 337.5,269C 338.227,270.399 338.727,271.899 339,273.5C 339.82,285.076 339.654,296.576 338.5,308C 334.909,308.789 331.409,308.622 328,307.5C 327.333,296.167 327.333,284.833 328,273.5C 328.352,271.753 328.852,270.086 329.5,268.5 Z"/></g>
<g><path style="opacity:1" fill="#060606" d="M 353.5,268.5 C 378.855,267.363 387.022,278.696 378,302.5C 370.824,308.195 362.658,310.029 353.5,308C 342.848,302.315 339.014,293.481 342,281.5C 344.3,275.706 348.133,271.373 353.5,268.5 Z"/></g>
<g><path style="opacity:1" fill="#090909" d="M 385.5,268.5 C 388.833,268.5 392.167,268.5 395.5,268.5C 395.337,270.857 395.503,273.19 396,275.5C 403.081,267.371 411.081,266.371 420,272.5C 421.586,274.67 422.92,277.004 424,279.5C 425.584,288.758 425.917,298.091 425,307.5C 421.606,308.456 418.106,308.789 414.5,308.5C 414.666,300.493 414.5,292.493 414,284.5C 411.575,278.205 407.075,276.038 400.5,278C 397.533,280.1 395.7,282.934 395,286.5C 394.835,293.508 394.835,300.508 395,307.5C 391.333,308.833 387.667,308.833 384,307.5C 383.253,294.428 383.753,281.428 385.5,268.5 Z"/></g>
<g><path style="opacity:1" fill="#59676e" d="M 154.5,210.5 C 155.833,210.5 157.167,210.5 158.5,210.5C 161.86,213.194 164.86,216.194 167.5,219.5C 168.264,222.018 169.264,224.351 170.5,226.5C 173.13,233.913 174.13,241.579 173.5,249.5C 173.025,256.352 171.692,263.018 169.5,269.5C 159.434,288.217 143.768,299.05 122.5,302C 126.5,302.333 130.5,302.667 134.5,303C 133.956,303.717 133.289,304.217 132.5,304.5C 113.5,303.833 94.5,303.167 75.5,302.5C 88.8375,302.667 102.171,302.5 115.5,302C 111.152,301.427 106.819,300.76 102.5,300C 96.7706,297.465 91.1039,294.965 85.5,292.5C 82.5256,289.862 79.5256,287.195 76.5,284.5C 75.2141,281.883 73.5475,279.55 71.5,277.5C 72.242,275.02 73.242,272.687 74.5,270.5C 86.6449,291.07 104.645,299.57 128.5,296C 152.781,289.887 166.115,274.387 168.5,249.5C 170.055,237.641 167.055,226.974 159.5,217.5C 158.246,214.907 156.58,212.573 154.5,210.5 Z"/></g>
<g><path style="opacity:1" fill="#102a37" d="M 147.5,243.5 C 149.104,260.068 141.771,270.902 125.5,276C 116.182,278.165 108.182,275.998 101.5,269.5C 104.096,270.265 106.763,270.599 109.5,270.5C 126.655,276.325 137.988,270.658 143.5,253.5C 144.314,251.369 144.814,249.036 145,246.5C 146.417,245.922 147.25,244.922 147.5,243.5 Z"/></g>
<g><path style="opacity:1" fill="#113040" d="M 87.5,259.5 C 93.8422,273.009 104.509,280.009 119.5,280.5C 119.389,281.117 119.056,281.617 118.5,282C 125.152,282.587 131.485,281.421 137.5,278.5C 134.195,281.649 130.195,283.483 125.5,284C 106.912,286.324 93.5789,279.157 85.5,262.5C 86.1667,261.5 86.8333,260.5 87.5,259.5 Z"/></g>
<g><path style="opacity:1" fill="#f9f9f9" d="M 358.5,276.5 C 364.425,275.875 368.591,278.208 371,283.5C 371.767,287.594 371.434,291.594 370,295.5C 366.534,300.442 362.034,301.609 356.5,299C 349.339,290.662 350.005,283.162 358.5,276.5 Z"/></g>
<g><path style="opacity:1" fill="#5e9fb4" d="M 153.5,246.5 C 154.735,251.45 154.401,256.45 152.5,261.5C 149.3,268.703 144.3,274.37 137.5,278.5C 131.485,281.421 125.152,282.587 118.5,282C 119.056,281.617 119.389,281.117 119.5,280.5C 140.492,278.842 151.825,267.508 153.5,246.5 Z"/></g>
<g><path style="opacity:1" fill="#030910" d="M 76.5,284.5 C 79.5256,287.195 82.5256,289.862 85.5,292.5C 81.7893,295.032 78.456,298.032 75.5,301.5C 74.4265,303.279 73.0931,304.946 71.5,306.5C 89.3325,307.346 106.999,308.346 124.5,309.5C 115.045,316.401 105.378,323.067 95.5,329.5C 79.8333,329.5 64.1667,329.5 48.5,329.5C 48.5,321.833 48.5,314.167 48.5,306.5C 57.5221,298.816 66.8554,291.483 76.5,284.5 Z"/></g>
<g><path style="opacity:1" fill="#183443" d="M 170.5,269.5 C 172.086,270.413 173.586,270.413 175,269.5C 175.791,271.604 177.291,272.937 179.5,273.5C 180.393,276.084 180.726,278.751 180.5,281.5C 177.127,294.708 168.794,303.208 155.5,307C 150.915,308.225 146.248,308.725 141.5,308.5C 150.66,302.933 159.827,297.266 169,291.5C 174.254,284.408 174.754,277.075 170.5,269.5 Z"/></g>
<g><path style="opacity:1" fill="#f7f8f8" d="M 85.5,292.5 C 91.1039,294.965 96.7706,297.465 102.5,300C 106.819,300.76 111.152,301.427 115.5,302C 102.171,302.5 88.8375,302.667 75.5,302.5C 75.5,302.167 75.5,301.833 75.5,301.5C 78.456,298.032 81.7893,295.032 85.5,292.5 Z"/></g>
<g><path style="opacity:1" fill="#040a10" d="M 204.5,287.5 C 200.816,306.355 189.816,318.855 171.5,325C 164.088,327.849 156.422,329.349 148.5,329.5C 136.322,329.828 124.322,329.495 112.5,328.5C 122.167,321.833 131.833,315.167 141.5,308.5C 146.248,308.725 150.915,308.225 155.5,307C 168.794,303.208 177.127,294.708 180.5,281.5C 181.222,281.082 181.722,280.416 182,279.5C 183.667,280.167 185.333,280.833 187,281.5C 192.045,281.244 197.212,281.078 202.5,281C 203.833,282.333 203.833,283.667 202.5,285C 203.381,285.708 204.047,286.542 204.5,287.5 Z"/></g>
<g><path style="opacity:1" fill="#163343" d="M 75.5,301.5 C 75.5,301.833 75.5,302.167 75.5,302.5C 94.5,303.167 113.5,303.833 132.5,304.5C 129.833,306.167 127.167,307.833 124.5,309.5C 106.999,308.346 89.3325,307.346 71.5,306.5C 73.0931,304.946 74.4265,303.279 75.5,301.5 Z"/></g>
<g><path style="opacity:1" fill="#505253" d="M 48.5,306.5 C 48.5,314.167 48.5,321.833 48.5,329.5C 64.1667,329.5 79.8333,329.5 95.5,329.5C 79.6754,330.496 63.6754,330.83 47.5,330.5C 47.1743,322.316 47.5076,314.316 48.5,306.5 Z"/></g>
<g><path style="opacity:1" fill="#36383a" d="M 112.5,328.5 C 124.322,329.495 136.322,329.828 148.5,329.5C 136.327,330.825 123.994,330.825 111.5,329.5C 111.624,328.893 111.957,328.56 112.5,328.5 Z"/></g>
</svg>
